<svg xmlns="http://www.w3.org/2000/svg" xmlns:svg="http://www.w3.org/2000/svg" id="svg5" width="351.507" height="266.945" version="1.1" viewBox="0 0 93.003 70.629"><g id="layer1" transform="translate(-1.9152158,-2.0721898)"><path style="fill:#006ae5;fill-opacity:1;stroke:none;stroke-width:.264582px;stroke-linecap:butt;stroke-linejoin:miter;stroke-opacity:1" id="path857" d="M 40.416525,60.891613 4.0282578,60.971973 21.954474,52.530964 1.9152158,37.333842 23.036175,36.095186 13.785941,7.9404928 36.568843,24.628816 45.739781,2.8721898 56.428973,25.368105 79.67953,7.3166658 71.704985,35.516472 94.917999,39.103793 71.59333,53.643139 89.403313,61.33979 53.256621,61.178386 Z"/><rect style="fill:#fff;fill-opacity:1;stroke:#006ae5;stroke-width:2.62;stroke-miterlimit:4;stroke-dasharray:none;stroke-opacity:1" id="rect20385" width="26.616" height="25.07" x="17.493" y="39.555" ry="4.361"/><path style="fill:#006ae5;fill-opacity:1;stroke:none;stroke-width:.278415;stroke-opacity:1" id="path1591-7" d="m 35.048892,55.313175 a 2.5625603,2.6512764 0 0 1 -2.510112,2.650721 2.5625603,2.6512764 0 0 1 -2.612861,-2.542215 2.5625603,2.6512764 0 0 1 2.403156,-2.754785 2.5625603,2.6512764 0 0 1 2.711233,2.42945"/><rect style="fill:#fff;fill-opacity:1;stroke:#006ae5;stroke-width:2.62;stroke-miterlimit:4;stroke-dasharray:none;stroke-opacity:1" id="rect20764" width="26.616" height="25.07" x="49.243" y="39.555" ry="4.192"/><path style="fill:#fffeff;fill-opacity:1;stroke:#fff;stroke-width:3;stroke-linecap:round;stroke-linejoin:miter;stroke-miterlimit:4;stroke-dasharray:none;stroke-opacity:1" id="path3761" d="m 46.37454,40.406589 21.094966,-8.27416"/><path style="fill:none;stroke:#fff;stroke-width:2.02444;stroke-linecap:butt;stroke-linejoin:miter;stroke-miterlimit:4;stroke-dasharray:none;stroke-opacity:1" id="path2058" d="m 42.368147,49.640228 9.434742,0.06373"/><path style="fill:#fffeff;fill-opacity:1;stroke:#fff;stroke-width:3;stroke-linecap:round;stroke-linejoin:miter;stroke-miterlimit:4;stroke-dasharray:none;stroke-opacity:1" id="path20945" d="M 46.37454,40.406589 25.639595,32.744776"/><path style="fill:#006ae5;fill-opacity:1;stroke:none;stroke-width:.278415;stroke-opacity:1" id="path22311" d="m 63.503055,55.131821 a 2.5625603,2.6512764 0 0 1 -2.510112,2.650721 2.5625603,2.6512764 0 0 1 -2.612862,-2.542216 2.5625603,2.6512764 0 0 1 2.403157,-2.754785 2.5625603,2.6512764 0 0 1 2.711233,2.429451"/><path style="fill:none;stroke:#006ae5;stroke-width:3.03863;stroke-linecap:round;stroke-linejoin:miter;stroke-miterlimit:4;stroke-dasharray:none;stroke-opacity:1" id="path23642" d="m 38.662892,69.813886 c 4.83315,-1.801587 10.829166,-2.117971 15.896695,-0.07408"/></g></svg>